<svg width="24" height="24" viewBox="0 0 24 24" fill="none" xmlns="http://www.w3.org/2000/svg">
<path fill-rule="evenodd" clip-rule="evenodd" d="M13.6053 13.035C13.8047 12.999 14.0069 12.981 14.2095 12.9811C14.6356 12.9811 15.0433 13.0599 15.4189 13.2037L16.9132 11.0789L16.9702 11.1112C16.4163 10.4922 16.1105 9.69038 16.1117 8.8597C16.1117 6.99208 17.6257 5.47805 19.4934 5.47805C21.361 5.47805 22.875 6.99208 22.875 8.8597C22.875 10.7273 21.361 12.2413 19.4934 12.2413C19.1053 12.2413 18.7325 12.1759 18.3853 12.0557L16.8731 14.2789C17.3395 14.8733 17.5924 15.6072 17.5912 16.3627C17.5912 18.2303 16.0772 19.7444 14.2095 19.7444C12.3419 19.7444 10.8279 18.2303 10.8279 16.3627C10.8279 15.3306 11.2903 14.4064 12.0193 13.7861L9.82503 9.4238C9.59869 9.47046 9.36818 9.4939 9.13708 9.49375C8.84606 9.49397 8.55624 9.45667 8.27476 9.38279L6.71963 12.123C7.36277 12.7385 7.76329 13.6056 7.76329 14.5662C7.76329 16.4338 6.24926 17.9479 4.38164 17.9479C2.51402 17.9479 1 16.4338 1 14.5662C1 12.6986 2.51402 11.1846 4.38164 11.1846C4.66221 11.1846 4.93475 11.2187 5.19535 11.2831L6.76031 8.51752C6.13989 7.9047 5.75543 7.05337 5.75543 6.11211C5.75543 4.24449 7.26946 2.73047 9.13708 2.73047C11.0047 2.73047 12.5187 4.24449 12.5187 6.11211C12.5187 7.12269 12.0754 8.02971 11.3728 8.6494L13.6053 13.035ZM19.4934 10.5505C20.4272 10.5505 21.1842 9.79356 21.1842 8.8597C21.1842 7.92583 20.4272 7.16887 19.4934 7.16887C18.5595 7.16887 17.8025 7.92583 17.8025 8.8597C17.8025 9.79356 18.5595 10.5505 19.4934 10.5505ZM4.38164 16.257C5.3155 16.257 6.07246 15.5001 6.07246 14.5662C6.07246 13.6324 5.3155 12.8754 4.38164 12.8754C3.44778 12.8754 2.69082 13.6324 2.69082 14.5662C2.69082 15.5001 3.44778 16.257 4.38164 16.257ZM9.13708 7.80293C10.0709 7.80293 10.8279 7.04597 10.8279 6.11211C10.8279 5.17825 10.0709 4.42129 9.13708 4.42129C8.20322 4.42129 7.44626 5.17825 7.44626 6.11211C7.44626 7.04597 8.20322 7.80293 9.13708 7.80293ZM14.2095 18.0535C15.1434 18.0535 15.9004 17.2966 15.9004 16.3627C15.9004 15.4289 15.1434 14.6719 14.2095 14.6719C13.2757 14.6719 12.5187 15.4289 12.5187 16.3627C12.5187 17.2966 13.2757 18.0535 14.2095 18.0535Z" fill="#9550C9"/>
</svg>
